<svg width="44" height="44" viewBox="0 0 44 44" fill="none" xmlns="http://www.w3.org/2000/svg">
<g clip-path="url(#clip0_227_2)">
<path d="M16.5 34.8335C8.61667 37.4002 8.61667 30.2502 5.5 29.3335M27.5 38.5002V32.0835C27.5 30.2502 27.6833 29.5168 26.5833 28.4168C31.7167 27.8668 36.6667 25.8502 36.6667 17.4168C36.6644 15.2259 35.8097 13.1219 34.2833 11.5502C34.9992 9.64709 34.9333 7.53814 34.1 5.68349C34.1 5.68349 32.0833 5.13349 27.6833 8.06682C23.9566 7.09623 20.0434 7.09623 16.3167 8.06682C11.9167 5.13349 9.9 5.68349 9.9 5.68349C9.06672 7.53814 9.00081 9.64709 9.71667 11.5502C8.19033 13.1219 7.33557 15.2259 7.33333 17.4168C7.33333 25.8502 12.2833 27.8668 17.4167 28.4168C16.3167 29.5168 16.3167 30.6168 16.5 32.0835V38.5002" stroke="black" stroke-width="1.83333" stroke-linecap="round" stroke-linejoin="round"/>
</g>
<defs>
<clipPath id="clip0_227_2">
<rect width="44" height="44" fill="white"/>
</clipPath>
</defs>
</svg>
